<svg xmlns="http://www.w3.org/2000/svg" viewBox="0 0 726.37 299.35">
                    <defs>
                        <style>
                            .a{fill:#111116;}
                            .v {fill:#ff8001;}
                        </style>
                        <pattern id="gradient" patternUnits="userSpaceOnUse" width="512" height="512">
                            <image href="/wp-content/uploads/2022/03/gradient.jpg" x="0" y="0" width="512" height="512"></image>
                        </pattern>    
                        </defs>
                    <path class="a" d="M339.52,246v6h-86V232c-16.21,14-34.5,23.46-53.47,23.46-22.43,0-37.61-13-37.61-35,0-32.21,33.82-53.57,91.08-59.87,0-38.52-15.18-57.77-41.4-57.77-15.52,0-26.22,4.2-37.94,13.3l-1.73-1.75c23.46-26.61,49-41,83.49-41,43.47,0,66.58,25.21,66.58,76V246Zm-86-18.83v-62c-20.56,6-28.44,19.25-28.44,37.81,0,16.46,6.86,25.21,20.56,25.21a37.37,37.37,0,0,0,7.88-1Z"></path>
                    <path class="a" d="M470.52,74.78V167h-.34c-35.59-40-51.68-49.07-63.66-47V246h25v6h-111v-6h17V118.9l-19.66-17.15,88.66-30.11v44.55C426,90.09,448.28,73.73,464,73.73A19.53,19.53,0,0,1,470.52,74.78Z"></path>
                    <path class="a" d="M466.52,246h17V72.2L463.86,55l88.66-31.51V246h17v6h-103Z"></path>
                    <path class="a" d="M208.52,81h-1.25c-35.85-53.72-63.5-75-100-75h-1.71V118.88c20-2.1,47.28-21.31,58.66-40.88h.34v87h-.34c-11.38-19.22-38.64-38.43-58.66-40.53V246h40v6H3.52v-6h27V18.93L0,0H208.52Z"></path>
                    <path class="a" d="M26.88,298.78,25,293.71H11.92l-1.85,5.07H3.21l11.35-29.36h7.83L33.7,298.78Zm-8.4-23.94L13.59,288.3h9.73Z"></path>
                    <path class="v" d="M527.92,162c0-50.77,39.76-91.24,97.63-91.24,58.57,0,100.82,35.5,100.82,91.24,0,51.83-33,93.36-100.47,93.36C574.78,255.31,527.92,219.1,527.92,162Zm152.3,62.48c0-29.82-59.64-140.94-90.88-140.94-8.88,0-14.2,6.39-14.2,17.4,0,34.79,61.41,141.64,90.52,141.64C675.25,242.53,680.22,236.5,680.22,224.43Z"></path>
                    <path class="a" d="M69.46,289.89a12.89,12.89,0,0,0,9.33,4c3.43,0,5.1-1.63,5.1-3.3,0-2.2-2.55-2.95-5.94-3.74-4.8-1.1-11-2.42-11-9C67,273,71.18,269,78.09,269a16.29,16.29,0,0,1,11.44,4.1l-3.48,4.57a12.51,12.51,0,0,0-8.4-3.21c-2.82,0-4.32,1.23-4.32,3,0,2,2.47,2.6,5.86,3.39,4.84,1.1,11,2.55,11,9.07,0,5.36-3.83,9.41-11.75,9.41-5.63,0-9.68-1.89-12.45-4.66Z"></path>
                    <path class="a" d="M104.13,298.78V269.42h6.25v29.36Z"></path>
                    <path class="a" d="M146.11,298.78l-14-19.72v19.72h-6.25V269.42h6.43l13.6,19v-19h6.25v29.36Z"></path>
                    <path class="a" d="M167.62,298.78V269.42h20.77v5.37H173.87v6.38h14.21v5.37H173.87v6.82h14.52v5.42Z"></path>
                    <path class="a" d="M238.71,268.94a13.78,13.78,0,0,1,12.15,6.42l-5.2,2.82a8.32,8.32,0,0,0-6.95-3.7c-5.33,0-9.2,4.1-9.2,9.64s3.87,9.64,9.2,9.64a9.91,9.91,0,0,0,6.34-2.25V288h-7.84v-5.37h14V293.8a16.31,16.31,0,0,1-12.5,5.55c-8.58,0-15.62-6-15.62-15.23S230.13,268.94,238.71,268.94Z"></path>
                    <path class="a" d="M282.45,298.78l-5.77-10.52H272.1v10.52h-6.24V269.42h13.73c6.11,0,9.85,4,9.85,9.46,0,5.2-3.25,8-6.42,8.72l6.6,11.18Zm-3.79-24H272.1v8.1h6.56c2.51,0,4.4-1.59,4.4-4.05s-1.89-4-4.4-4Z"></path>
                    <path class="a" d="M317.73,268.94c8.89,0,15.36,6.34,15.36,15.18s-6.47,15.18-15.36,15.18-15.31-6.33-15.31-15.18S308.89,268.94,317.73,268.94Zm0,5.54c-5.41,0-8.89,4.14-8.89,9.64s3.48,9.64,8.89,9.64,8.94-4.18,8.94-9.64S323.15,274.48,317.73,274.48Z"></path>
                    <path class="a" d="M347.17,269.42h6.33v17.43c0,4.09,2.25,6.91,6.82,6.91s6.74-2.82,6.74-6.91V269.42h6.33V287c0,7.3-4.18,12.27-13.07,12.27s-13.15-5-13.15-12.23Z"></path>
                    <path class="a" d="M388.88,298.78V269.42h13.73c6.38,0,9.86,4.32,9.86,9.46s-3.52,9.38-9.86,9.38h-7.48v10.52Zm12.89-24h-6.64v8.1h6.64a4.06,4.06,0,0,0,.57-8.1Z"></path>
                    <path class="a" d="M446.15,284.12c0-9,6.82-15.18,15.4-15.18a13.55,13.55,0,0,1,12.5,7.17l-5.37,2.64a8,8,0,0,0-7.13-4.27c-5.1,0-9,4.1-9,9.64s3.88,9.64,9,9.64a8,8,0,0,0,7.13-4.27l5.37,2.6a13.64,13.64,0,0,1-12.5,7.21C453,299.3,446.15,293.14,446.15,284.12Z"></path>
                    <path class="a" d="M501.37,268.94c8.89,0,15.36,6.34,15.36,15.18s-6.47,15.18-15.36,15.18-15.31-6.33-15.31-15.18S492.53,268.94,501.37,268.94Zm0,5.54c-5.41,0-8.89,4.14-8.89,9.64s3.48,9.64,8.89,9.64,8.94-4.18,8.94-9.64S506.79,274.48,501.37,274.48Z"></path>
                    <path class="a" d="M556.33,298.78V277.65l-8.27,21.13h-2.73l-8.27-21.13v21.13h-6.25V269.42h8.75l7.13,18.31,7.13-18.31h8.8v29.36Z"></path>
                    <path class="a" d="M578.11,298.78V269.42h13.73c6.38,0,9.85,4.32,9.85,9.46s-3.52,9.38-9.85,9.38h-7.49v10.52Zm12.89-24h-6.65v8.1H591a4.06,4.06,0,0,0,.57-8.1Z"></path>
                    <path class="a" d="M632.54,298.78l-1.85-5.07H617.57l-1.84,5.07h-6.87l11.36-29.36h7.83l11.31,29.36Zm-8.41-23.94-4.88,13.46H629Z"></path>
                    <path class="a" d="M672,298.78l-14-19.72v19.72h-6.25V269.42h6.43l13.59,19v-19H678v29.36Z"></path>
                    <path class="a" d="M701.7,298.78v-12l-11.31-17.34h7.13l7.31,11.8,7.21-11.8h7.13L708,286.76v12Z"></path>
                    
                </svg>
